<svg xmlns="http://www.w3.org/2000/svg" width="240" height="240" viewBox="0 0 240 240" role="img" aria-label="Cash App QR code placeholder">
  <rect width="240" height="240" rx="16" fill="#ffffff"/>
  <g fill="#00d54b">
    <rect x="24" y="24" width="56" height="56" rx="6"/>
    <rect x="36" y="36" width="32" height="32" rx="3" fill="#ffffff"/>
    <rect x="44" y="44" width="16" height="16" rx="2" fill="#00d54b"/>
    <rect x="160" y="24" width="56" height="56" rx="6"/>
    <rect x="172" y="36" width="32" height="32" rx="3" fill="#ffffff"/>
    <rect x="180" y="44" width="16" height="16" rx="2" fill="#00d54b"/>
    <rect x="24" y="160" width="56" height="56" rx="6"/>
    <rect x="36" y="172" width="32" height="32" rx="3" fill="#ffffff"/>
    <rect x="44" y="180" width="16" height="16" rx="2" fill="#00d54b"/>
    <rect x="100" y="24" width="12" height="12"/><rect x="124" y="36" width="12" height="12"/>
    <rect x="112" y="60" width="12" height="12"/><rect x="136" y="72" width="12" height="12"/>
    <rect x="100" y="96" width="12" height="12"/><rect x="160" y="100" width="12" height="12"/>
    <rect x="184" y="112" width="12" height="12"/><rect x="208" y="100" width="12" height="12"/>
    <rect x="100" y="124" width="12" height="12"/><rect x="124" y="136" width="12" height="12"/>
    <rect x="148" y="148" width="12" height="12"/><rect x="172" y="160" width="12" height="12"/>
    <rect x="196" y="172" width="12" height="12"/><rect x="112" y="184" width="12" height="12"/>
    <rect x="136" y="196" width="12" height="12"/><rect x="160" y="208" width="12" height="12"/>
  </g>
  <rect x="78" y="104" width="84" height="32" rx="6" fill="#0b0b0b"/>
  <text x="120" y="125" text-anchor="middle" font-family="Arial, sans-serif" font-size="14" font-weight="700" fill="#ffffff">Cash App</text>
</svg>
